<svg width="151" height="20" viewBox="0 0 151 20" fill="none" xmlns="http://www.w3.org/2000/svg">
<path d="M4.312 16.112C3.992 16.112 3.66133 16.104 3.32 16.088C2.97867 16.072 2.63467 16.048 2.288 16.016C1.94133 15.9893 1.6 15.9547 1.264 15.912V4.376C1.6 4.30667 1.952 4.24533 2.32 4.192C2.688 4.13867 3.06933 4.09867 3.464 4.072C3.864 4.04533 4.26933 4.032 4.68 4.032C5.77867 4.032 6.67467 4.14933 7.368 4.384C8.06133 4.61867 8.57067 4.97333 8.896 5.448C9.22133 5.91733 9.384 6.50933 9.384 7.224C9.384 7.67733 9.30133 8.09333 9.136 8.472C8.97067 8.85067 8.71467 9.17067 8.368 9.432C8.02133 9.688 7.57867 9.86133 7.04 9.952L7.056 9.84C7.93067 9.94667 8.592 10.2533 9.04 10.76C9.49333 11.2613 9.72 11.9253 9.72 12.752C9.72 13.2907 9.62133 13.7707 9.424 14.192C9.22667 14.6133 8.91467 14.9653 8.488 15.248C8.06133 15.5307 7.504 15.7467 6.816 15.896C6.128 16.04 5.29333 16.112 4.312 16.112ZM4.704 14.816C5.568 14.816 6.248 14.7387 6.744 14.584C7.24 14.424 7.59467 14.1893 7.808 13.88C8.02133 13.5653 8.128 13.168 8.128 12.688C8.128 11.9733 7.90133 11.4453 7.448 11.104C7 10.7627 6.28 10.592 5.288 10.592H2.72V9.272H5.056C5.712 9.272 6.23733 9.2 6.632 9.056C7.032 8.90667 7.32267 8.688 7.504 8.4C7.68533 8.10667 7.776 7.74133 7.776 7.304C7.776 6.6 7.55467 6.096 7.112 5.792C6.66933 5.48267 5.92 5.328 4.864 5.328C4.47467 5.328 4.12533 5.34133 3.816 5.368C3.50667 5.39467 3.21067 5.43467 2.928 5.488V14.72C3.22667 14.7573 3.51733 14.784 3.8 14.8C4.088 14.8107 4.38933 14.816 4.704 14.816ZM15.21 16.144C14.3673 16.144 13.706 15.928 13.226 15.496C12.7513 15.064 12.514 14.4747 12.514 13.728C12.514 12.9547 12.7753 12.3493 13.298 11.912C13.8207 11.4747 14.658 11.2053 15.81 11.104L17.994 10.888L18.162 11.904L15.954 12.128C15.3247 12.192 14.8713 12.344 14.594 12.584C14.322 12.8187 14.186 13.1493 14.186 13.576C14.186 14.008 14.3113 14.3413 14.562 14.576C14.818 14.8053 15.1913 14.92 15.682 14.92C16.0233 14.92 16.3647 14.8507 16.706 14.712C17.0473 14.5733 17.354 14.3413 17.626 14.016V10.368C17.626 9.87733 17.5487 9.496 17.394 9.224C17.2393 8.952 17.002 8.76 16.682 8.648C16.362 8.536 15.954 8.48 15.458 8.48C15.1273 8.48 14.754 8.50933 14.338 8.568C13.922 8.62667 13.5113 8.72267 13.106 8.856V7.544C13.4953 7.416 13.9247 7.32 14.394 7.256C14.8633 7.192 15.3033 7.16 15.714 7.16C16.5087 7.16 17.1673 7.264 17.69 7.472C18.218 7.67467 18.61 8.016 18.866 8.496C19.1273 8.976 19.258 9.632 19.258 10.464V16H17.874L17.754 15.064H17.658C17.3807 15.4213 17.026 15.6907 16.594 15.872C16.1673 16.0533 15.706 16.144 15.21 16.144ZM25.8391 19.68C25.4178 19.68 24.9698 19.648 24.4951 19.584C24.0258 19.52 23.5831 19.4267 23.1671 19.304V17.944C23.6311 18.0827 24.0765 18.184 24.5031 18.248C24.9351 18.3173 25.3431 18.352 25.7271 18.352C26.6391 18.352 27.3085 18.1627 27.7351 17.784C28.1671 17.4053 28.3831 16.7573 28.3831 15.84V15.08H28.2951C28.0391 15.384 27.7111 15.6293 27.3111 15.816C26.9111 16.0027 26.4525 16.096 25.9351 16.096C25.3378 16.096 24.7858 15.9547 24.2791 15.672C23.7725 15.384 23.3645 14.928 23.0551 14.304C22.7458 13.6747 22.5911 12.848 22.5911 11.824C22.5911 10.2773 22.9751 9.11467 23.7431 8.336C24.5165 7.552 25.6578 7.16 27.1671 7.16C27.4871 7.16 27.8151 7.17867 28.1511 7.216C28.4925 7.248 28.8258 7.296 29.1511 7.36C29.4765 7.41867 29.7778 7.49333 30.0551 7.584V15.56C30.0551 17.0213 29.7031 18.072 28.9991 18.712C28.3005 19.3573 27.2471 19.68 25.8391 19.68ZM26.4951 14.696C26.8418 14.696 27.1831 14.6267 27.5191 14.488C27.8605 14.3493 28.1485 14.1333 28.3831 13.84V8.64C28.2071 8.592 27.9991 8.55467 27.7591 8.528C27.5245 8.496 27.2818 8.48 27.0311 8.48C26.1405 8.48 25.4605 8.728 24.9911 9.224C24.5218 9.72 24.2871 10.536 24.2871 11.672C24.2871 12.4613 24.3805 13.0747 24.5671 13.512C24.7591 13.9493 25.0205 14.256 25.3511 14.432C25.6818 14.608 26.0631 14.696 26.4951 14.696ZM36.1364 16.16C35.683 16.16 35.2457 16.128 34.8244 16.064C34.403 16.0053 33.9977 15.9173 33.6084 15.8V14.512C34.035 14.6347 34.4537 14.728 34.8644 14.792C35.2804 14.8507 35.7017 14.88 36.1284 14.88C36.827 14.88 37.3284 14.768 37.6324 14.544C37.9417 14.32 38.0964 14.0053 38.0964 13.6C38.0964 13.2587 38.0084 13 37.8324 12.824C37.6564 12.6427 37.355 12.5067 36.9284 12.416L35.6804 12.168C34.875 12.0027 34.2964 11.7227 33.9444 11.328C33.5977 10.928 33.4244 10.4053 33.4244 9.76C33.4244 8.99733 33.723 8.37333 34.3204 7.888C34.923 7.40267 35.843 7.16 37.0804 7.16C37.4644 7.16 37.8377 7.184 38.2004 7.232C38.563 7.27467 38.9017 7.33867 39.2164 7.424V8.712C38.8697 8.616 38.5257 8.54667 38.1844 8.504C37.843 8.46133 37.4884 8.44 37.1204 8.44C36.587 8.44 36.1657 8.49867 35.8564 8.616C35.5524 8.728 35.3337 8.88 35.2004 9.072C35.0724 9.264 35.0084 9.48 35.0084 9.72C35.0084 10.0133 35.091 10.256 35.2564 10.448C35.427 10.64 35.723 10.784 36.1444 10.88L37.3924 11.12C38.187 11.28 38.7657 11.552 39.1284 11.936C39.4964 12.3147 39.6804 12.8453 39.6804 13.528C39.6804 14.3387 39.3764 14.9813 38.7684 15.456C38.1657 15.9253 37.2884 16.16 36.1364 16.16Z" fill="#E5DFD9"/>
<circle cx="51.5" cy="10" r="2.5" fill="#E5DFD9"/>
<path d="M66.312 16.112C65.992 16.112 65.6613 16.104 65.32 16.088C64.9787 16.072 64.6347 16.048 64.288 16.016C63.9413 15.9893 63.6 15.9547 63.264 15.912V4.376C63.6 4.30667 63.952 4.24533 64.32 4.192C64.688 4.13867 65.0693 4.09867 65.464 4.072C65.864 4.04533 66.2693 4.032 66.68 4.032C67.7787 4.032 68.6747 4.14933 69.368 4.384C70.0613 4.61867 70.5707 4.97333 70.896 5.448C71.2213 5.91733 71.384 6.50933 71.384 7.224C71.384 7.67733 71.3013 8.09333 71.136 8.472C70.9707 8.85067 70.7147 9.17067 70.368 9.432C70.0213 9.688 69.5787 9.86133 69.04 9.952L69.056 9.84C69.9307 9.94667 70.592 10.2533 71.04 10.76C71.4933 11.2613 71.72 11.9253 71.72 12.752C71.72 13.2907 71.6213 13.7707 71.424 14.192C71.2267 14.6133 70.9147 14.9653 70.488 15.248C70.0613 15.5307 69.504 15.7467 68.816 15.896C68.128 16.04 67.2933 16.112 66.312 16.112ZM66.704 14.816C67.568 14.816 68.248 14.7387 68.744 14.584C69.24 14.424 69.5947 14.1893 69.808 13.88C70.0213 13.5653 70.128 13.168 70.128 12.688C70.128 11.9733 69.9013 11.4453 69.448 11.104C69 10.7627 68.28 10.592 67.288 10.592H64.72V9.272H67.056C67.712 9.272 68.2373 9.2 68.632 9.056C69.032 8.90667 69.3227 8.688 69.504 8.4C69.6853 8.10667 69.776 7.74133 69.776 7.304C69.776 6.6 69.5547 6.096 69.112 5.792C68.6693 5.48267 67.92 5.328 66.864 5.328C66.4747 5.328 66.1253 5.34133 65.816 5.368C65.5067 5.39467 65.2107 5.43467 64.928 5.488V14.72C65.2267 14.7573 65.5173 14.784 65.8 14.8C66.088 14.8107 66.3893 14.816 66.704 14.816ZM77.21 16.144C76.3673 16.144 75.706 15.928 75.226 15.496C74.7513 15.064 74.514 14.4747 74.514 13.728C74.514 12.9547 74.7753 12.3493 75.298 11.912C75.8207 11.4747 76.658 11.2053 77.81 11.104L79.994 10.888L80.162 11.904L77.954 12.128C77.3247 12.192 76.8713 12.344 76.594 12.584C76.322 12.8187 76.186 13.1493 76.186 13.576C76.186 14.008 76.3113 14.3413 76.562 14.576C76.818 14.8053 77.1913 14.92 77.682 14.92C78.0233 14.92 78.3647 14.8507 78.706 14.712C79.0473 14.5733 79.354 14.3413 79.626 14.016V10.368C79.626 9.87733 79.5487 9.496 79.394 9.224C79.2393 8.952 79.002 8.76 78.682 8.648C78.362 8.536 77.954 8.48 77.458 8.48C77.1273 8.48 76.754 8.50933 76.338 8.568C75.922 8.62667 75.5113 8.72267 75.106 8.856V7.544C75.4953 7.416 75.9247 7.32 76.394 7.256C76.8633 7.192 77.3033 7.16 77.714 7.16C78.5087 7.16 79.1673 7.264 79.69 7.472C80.218 7.67467 80.61 8.016 80.866 8.496C81.1273 8.976 81.258 9.632 81.258 10.464V16H79.874L79.754 15.064H79.658C79.3807 15.4213 79.026 15.6907 78.594 15.872C78.1673 16.0533 77.706 16.144 77.21 16.144ZM88.6551 16.16C87.7858 16.16 87.0471 16 86.4391 15.68C85.8365 15.36 85.3778 14.8693 85.0631 14.208C84.7485 13.5467 84.5911 12.696 84.5911 11.656C84.5911 10.6107 84.7591 9.75733 85.0951 9.096C85.4365 8.43467 85.9325 7.94667 86.5831 7.632C87.2338 7.31733 88.0258 7.16 88.9591 7.16C89.2791 7.16 89.5938 7.17867 89.9031 7.216C90.2125 7.25333 90.5085 7.30667 90.7911 7.376V8.752C90.5085 8.68267 90.2311 8.632 89.9591 8.6C89.6925 8.56267 89.4258 8.544 89.1591 8.544C88.5191 8.544 87.9885 8.64533 87.5671 8.848C87.1458 9.05067 86.8311 9.37867 86.6231 9.832C86.4205 10.28 86.3191 10.88 86.3191 11.632C86.3191 12.4 86.4151 13.0133 86.6071 13.472C86.8045 13.9307 87.0951 14.2613 87.4791 14.464C87.8631 14.6667 88.3378 14.768 88.9031 14.768C89.1805 14.768 89.4685 14.7413 89.7671 14.688C90.0711 14.6347 90.4125 14.552 90.7911 14.44V15.808C90.4605 15.92 90.1138 16.0053 89.7511 16.064C89.3885 16.128 89.0231 16.16 88.6551 16.16ZM99.8 16L96.432 11.536L99.56 7.296H101.384L98.152 11.736V11.288L101.656 16H99.8ZM95.424 12.224V10.856H97.088V12.224H95.424ZM93.928 16V3.072H95.6V16H93.928ZM104.169 19.52V7.296H105.585L105.697 8.248H105.785C106.041 7.92267 106.371 7.66133 106.777 7.464C107.182 7.26133 107.643 7.16 108.161 7.16C108.79 7.16 109.366 7.30133 109.889 7.584C110.417 7.86667 110.838 8.32533 111.153 8.96C111.473 9.58933 111.633 10.432 111.633 11.488C111.633 12.5227 111.462 13.3867 111.121 14.08C110.779 14.768 110.273 15.2853 109.601 15.632C108.934 15.9787 108.11 16.152 107.129 16.152C106.91 16.152 106.689 16.1413 106.465 16.12C106.241 16.104 106.033 16.0827 105.841 16.056V19.52H104.169ZM107.145 14.832C108.073 14.832 108.769 14.584 109.233 14.088C109.702 13.5867 109.937 12.7653 109.937 11.624C109.937 10.8293 109.841 10.2107 109.649 9.768C109.462 9.32533 109.201 9.01333 108.865 8.832C108.534 8.65067 108.155 8.56 107.729 8.56C107.382 8.56 107.038 8.63467 106.697 8.784C106.361 8.928 106.075 9.16267 105.841 9.488V14.696C106.017 14.7387 106.222 14.7733 106.457 14.8C106.691 14.8213 106.921 14.832 107.145 14.832ZM117.282 16.144C116.439 16.144 115.778 15.928 115.298 15.496C114.823 15.064 114.586 14.4747 114.586 13.728C114.586 12.9547 114.847 12.3493 115.37 11.912C115.893 11.4747 116.73 11.2053 117.882 11.104L120.066 10.888L120.234 11.904L118.026 12.128C117.397 12.192 116.943 12.344 116.666 12.584C116.394 12.8187 116.258 13.1493 116.258 13.576C116.258 14.008 116.383 14.3413 116.634 14.576C116.89 14.8053 117.263 14.92 117.754 14.92C118.095 14.92 118.437 14.8507 118.778 14.712C119.119 14.5733 119.426 14.3413 119.698 14.016V10.368C119.698 9.87733 119.621 9.496 119.466 9.224C119.311 8.952 119.074 8.76 118.754 8.648C118.434 8.536 118.026 8.48 117.53 8.48C117.199 8.48 116.826 8.50933 116.41 8.568C115.994 8.62667 115.583 8.72267 115.178 8.856V7.544C115.567 7.416 115.997 7.32 116.466 7.256C116.935 7.192 117.375 7.16 117.786 7.16C118.581 7.16 119.239 7.264 119.762 7.472C120.29 7.67467 120.682 8.016 120.938 8.496C121.199 8.976 121.33 9.632 121.33 10.464V16H119.946L119.826 15.064H119.73C119.453 15.4213 119.098 15.6907 118.666 15.872C118.239 16.0533 117.778 16.144 117.282 16.144ZM128.727 16.16C127.858 16.16 127.119 16 126.511 15.68C125.908 15.36 125.45 14.8693 125.135 14.208C124.82 13.5467 124.663 12.696 124.663 11.656C124.663 10.6107 124.831 9.75733 125.167 9.096C125.508 8.43467 126.004 7.94667 126.655 7.632C127.306 7.31733 128.098 7.16 129.031 7.16C129.351 7.16 129.666 7.17867 129.975 7.216C130.284 7.25333 130.58 7.30667 130.863 7.376V8.752C130.58 8.68267 130.303 8.632 130.031 8.6C129.764 8.56267 129.498 8.544 129.231 8.544C128.591 8.544 128.06 8.64533 127.639 8.848C127.218 9.05067 126.903 9.37867 126.695 9.832C126.492 10.28 126.391 10.88 126.391 11.632C126.391 12.4 126.487 13.0133 126.679 13.472C126.876 13.9307 127.167 14.2613 127.551 14.464C127.935 14.6667 128.41 14.768 128.975 14.768C129.252 14.768 129.54 14.7413 129.839 14.688C130.143 14.6347 130.484 14.552 130.863 14.44V15.808C130.532 15.92 130.186 16.0053 129.823 16.064C129.46 16.128 129.095 16.16 128.727 16.16ZM139.872 16L136.504 11.536L139.632 7.296H141.456L138.224 11.736V11.288L141.728 16H139.872ZM135.496 12.224V10.856H137.16V12.224H135.496ZM134 16V3.072H135.672V16H134ZM146.371 16.16C145.917 16.16 145.48 16.128 145.059 16.064C144.637 16.0053 144.232 15.9173 143.843 15.8V14.512C144.269 14.6347 144.688 14.728 145.099 14.792C145.515 14.8507 145.936 14.88 146.363 14.88C147.061 14.88 147.563 14.768 147.867 14.544C148.176 14.32 148.331 14.0053 148.331 13.6C148.331 13.2587 148.243 13 148.067 12.824C147.891 12.6427 147.589 12.5067 147.163 12.416L145.915 12.168C145.109 12.0027 144.531 11.7227 144.179 11.328C143.832 10.928 143.659 10.4053 143.659 9.76C143.659 8.99733 143.957 8.37333 144.555 7.888C145.157 7.40267 146.077 7.16 147.315 7.16C147.699 7.16 148.072 7.184 148.435 7.232C148.797 7.27467 149.136 7.33867 149.451 7.424V8.712C149.104 8.616 148.76 8.54667 148.419 8.504C148.077 8.46133 147.723 8.44 147.355 8.44C146.821 8.44 146.4 8.49867 146.091 8.616C145.787 8.728 145.568 8.88 145.435 9.072C145.307 9.264 145.243 9.48 145.243 9.72C145.243 10.0133 145.325 10.256 145.491 10.448C145.661 10.64 145.957 10.784 146.379 10.88L147.627 11.12C148.421 11.28 149 11.552 149.363 11.936C149.731 12.3147 149.915 12.8453 149.915 13.528C149.915 14.3387 149.611 14.9813 149.003 15.456C148.4 15.9253 147.523 16.16 146.371 16.16Z" fill="#E5DFD9"/>
</svg>
