<svg width="195" height="15" viewBox="0 0 195 15" fill="none" xmlns="http://www.w3.org/2000/svg">
<path d="M0.341797 0.791016V1.66016H4.89258V15H6.07422V1.66016H10.6738V0.791016H0.341797ZM27.9727 0.791016L22.5527 15H23.7246L25.5508 10.1758H31.4688L33.2754 15H34.3984L28.959 0.791016H27.9727ZM25.873 9.29688L28.4609 2.14844L31.1562 9.29688H25.873ZM57.7812 0.791016V9.74609L57.8496 13.5059L49.1582 0.791016H48.0547V15H49.0801V6.18164L48.9629 2.30469L57.6543 15H58.7871V0.791016H57.7812ZM83.7422 0.791016V9.74609L83.8105 13.5059L75.1191 0.791016H74.0156V15H75.041V6.18164L74.9238 2.30469L83.6152 15H84.748V0.791016H83.7422ZM113.955 0.791016V1.66016H118.506V15H119.688V1.66016H124.287V0.791016H113.955ZM147.533 4.30664C147.533 3.63607 147.455 3.08594 147.299 2.65625C147.143 2.22656 146.853 1.85872 146.43 1.55273C146.013 1.24023 145.437 1.01888 144.701 0.888672C143.965 0.758464 143.018 0.693359 141.859 0.693359C140.824 0.693359 139.451 0.755208 137.738 0.878906V15H138.93V7.95898L143.539 7.94922L146.811 15H147.992V14.8438L144.75 7.83203C145.688 7.6237 146.384 7.24284 146.84 6.68945C147.302 6.12956 147.533 5.33529 147.533 4.30664ZM138.93 1.69922C140.154 1.60807 141.166 1.5625 141.967 1.5625C142.722 1.5625 143.363 1.60156 143.891 1.67969C144.418 1.7513 144.848 1.85547 145.18 1.99219C145.512 2.12891 145.769 2.31771 145.951 2.55859C146.14 2.79297 146.267 3.05013 146.332 3.33008C146.397 3.60352 146.43 3.94206 146.43 4.3457C146.43 4.87305 146.381 5.29948 146.283 5.625C146.186 5.94401 146 6.2207 145.727 6.45508C145.453 6.68294 145.076 6.8457 144.594 6.94336C144.112 7.03451 143.487 7.08008 142.719 7.08008H138.93V1.69922ZM161.482 0.791016V1.54297H163.475V14.2383H161.482V15H166.648V14.2383H164.666V1.54297H166.648V0.791016H161.482ZM181.047 15H182.15V9.73633L182.248 2.11914L187.297 13.5645H188.332L193.381 2.19727L193.469 9.7168V15H194.572V9.73633L194.367 0.791016H192.873L187.834 12.2656L182.795 0.791016H181.232L181.047 9.73633V15Z" fill="#E5DFD9"/>
</svg>
